<svg id="Capa_1" enable-background="new 0 0 512 512" height="512" viewBox="0 0 512 512" width="512" xmlns="http://www.w3.org/2000/svg"><g><g><g><g><g><g><g><path d="m504.5 186.46v286.02c0 5.12-4.15 9.27-9.28 9.27h-204.7c-5.12 0-9.28-4.15-9.28-9.27v-286.02c0-5.12 4.16-9.28 9.28-9.28h204.7c5.13 0 9.28 4.16 9.28 9.28z" fill="#b9acac"/><g fill="#9e9797"><path d="m382.67 177.18v274.13c0 5.93-4.8 10.73-10.73 10.73h-90.7v-275.58c0-5.12 4.16-9.28 9.28-9.28z"/><path d="m504.5 258.567v-72.108c0-5.124-4.154-9.278-9.277-9.278h-204.702c-5.124 0-9.278 4.154-9.278 9.278v72.108z"/><path d="m504.497 186.456v286.021c0 5.127-4.15 9.278-9.277 9.278h-31.464c5.127 0 9.277-4.15 9.277-9.278v-286.021c0-5.119-4.15-9.278-9.277-9.278h31.464c5.126 0 9.277 4.159 9.277 9.278z"/></g><path d="m504.5 186.46v43.66h-223.26v-43.66c0-5.12 4.16-9.28 9.28-9.28h204.7c5.13 0 9.28 4.16 9.28 9.28z" fill="#3ad1e0"/><path d="m412.6 187.54c0 14.77-11.97 26.75-26.74 26.75-14.78 0-26.75-11.98-26.75-26.75 0-3.68.74-7.18 2.08-10.36h49.33c1.34 3.18 2.08 6.68 2.08 10.36z" fill="#20bfd5"/><path d="m504.497 186.456v43.664h-31.464v-43.664c0-5.119-4.15-9.278-9.277-9.278h31.464c5.126 0 9.277 4.159 9.277 9.278z" fill="#20bfd5"/></g></g><g><g><path d="m230.76 186.46v286.02c0 5.12-4.16 9.27-9.28 9.27h-204.7c-5.13 0-9.28-4.15-9.28-9.27v-286.02c0-5.12 4.15-9.28 9.28-9.28h204.7c5.12 0 9.28 4.16 9.28 9.28z" fill="#b9acac"/><g fill="#9e9797"><path d="m230.76 186.46v275.58h-95.57c-5.92 0-10.73-4.8-10.73-10.73v-274.13h97.02c5.12 0 9.28 4.16 9.28 9.28z"/><path d="m230.757 258.567v-72.108c0-5.124-4.154-9.278-9.278-9.278h-204.702c-5.124 0-9.277 4.154-9.277 9.278v72.108z"/><path d="m230.754 186.456v286.021c0 5.127-4.15 9.278-9.278 9.278h-31.464c5.127 0 9.278-4.15 9.278-9.278v-286.021c0-5.119-4.15-9.278-9.278-9.278h31.464c5.127 0 9.278 4.159 9.278 9.278z"/></g><path d="m230.757 230.123h-223.257v-43.664c0-5.124 4.154-9.277 9.277-9.277h204.703c5.124 0 9.277 4.154 9.277 9.277z" fill="#3ad1e0"/><path d="m230.754 186.456v43.664h-31.464v-43.664c0-5.119-4.15-9.278-9.278-9.278h31.464c5.127 0 9.278 4.159 9.278 9.278z" fill="#20bfd5"/></g></g></g><g><g><path d="m371.944 438.366h-236.75c-5.926 0-10.73-4.804-10.73-10.73v-330.796c0-5.926 4.804-10.73 10.73-10.73h236.75c5.926 0 10.73 4.804 10.73 10.73v330.795c0 5.927-4.804 10.731-10.73 10.731z" fill="#f8f3f1"/><path d="m382.674 175.453v-78.613c0-5.926-4.804-10.73-10.73-10.73h-236.75c-5.926 0-10.73 4.804-10.73 10.73v78.613z" fill="#efe2dd"/><path d="m382.67 96.836v330.8c0 5.93-4.8 10.73-10.73 10.73h-36.39c5.93 0 10.73-4.8 10.73-10.73v-330.8c0-5.92-4.8-10.73-10.73-10.73h36.39c5.93 0 10.73 4.81 10.73 10.73z" fill="#efe2dd"/><path d="m382.67 96.84v50.5h-258.21v-50.5c0-5.93 4.81-10.73 10.73-10.73h236.75c5.93 0 10.73 4.8 10.73 10.73z" fill="#31a7fb"/><g fill="#1c96f9"><path d="m335.55 94.9c0 13.11-10.63 23.75-23.75 23.75s-23.75-10.64-23.75-23.75c0-3.11.6-6.07 1.69-8.79h44.12c1.09 2.72 1.69 5.68 1.69 8.79z"/><path d="m382.67 96.836v50.5h-36.39v-50.5c0-5.92-4.8-10.73-10.73-10.73h36.39c5.93 0 10.73 4.81 10.73 10.73z"/></g></g></g></g></g><g><path d="m359.11 165.789c0-14.771 11.974-26.745 26.745-26.745s26.745 11.974 26.745 26.745-11.974 26.745-26.745 26.745c-14.771.001-26.745-11.974-26.745-26.745" fill="#bcea73"/><path d="m372.29 188.837c10.499-2.42 18.321-11.819 18.321-23.051 0-11.22-7.81-20.631-18.309-23.051 3.972-2.347 8.604-3.691 13.554-3.691 14.764 0 26.742 11.978 26.742 26.742 0 14.776-11.978 26.754-26.742 26.754-4.949 0-9.594-1.344-13.566-3.703" fill="#99d53b"/></g><g><path d="m288.05 71.148c0-13.117 10.633-23.75 23.75-23.75s23.75 10.633 23.75 23.75-10.633 23.75-23.75 23.75-23.75-10.634-23.75-23.75" fill="#a8e7ef"/><path d="m299.754 91.614c9.323-2.149 16.269-10.495 16.269-20.469 0-9.964-6.935-18.321-16.258-20.47 3.527-2.084 7.641-3.278 12.036-3.278 13.111 0 23.747 10.636 23.747 23.747 0 13.122-10.636 23.758-23.747 23.758-4.395.001-8.52-1.193-12.047-3.288" fill="#70d9e6"/></g></g><g><path d="m495.223 169.682h-75.35c.145-1.279.228-2.576.228-3.893 0-17.419-13.076-31.832-29.927-33.963v-34.986c0-10.052-8.178-18.23-18.23-18.23h-29.801c.589-2.393.907-4.891.907-7.463 0-17.231-14.019-31.25-31.25-31.25s-31.25 14.019-31.25 31.25c0 2.572.319 5.07.907 7.463h-146.263c-10.052 0-18.23 8.178-18.23 18.23v72.841h-21.922c-4.142 0-7.5 3.358-7.5 7.5s3.358 7.5 7.5 7.5h21.922v37.941h-101.964v-36.162c0-.98.797-1.778 1.777-1.778h41.238c4.142 0 7.5-3.358 7.5-7.5s-3.358-7.5-7.5-7.5h-41.238c-9.251 0-16.777 7.526-16.777 16.778v286.017c0 9.251 7.526 16.777 16.777 16.777h204.702c9.251 0 16.777-7.526 16.777-16.777v-26.611h35.486v26.611c0 9.251 7.526 16.777 16.777 16.777h61.051c4.142 0 7.5-3.358 7.5-7.5s-3.358-7.5-7.5-7.5h-61.051c-.98 0-1.777-.797-1.777-1.777v-26.611h83.201c10.052 0 18.23-8.178 18.23-18.229v-190.014h106.827v234.853c0 .98-.797 1.777-1.777 1.777h-106.625c-4.142 0-7.5 3.358-7.5 7.5s3.358 7.5 7.5 7.5h106.625c9.251 0 16.777-7.526 16.777-16.777v-286.016c0-9.252-7.526-16.778-16.777-16.778zm-90.122-3.893c0 10.612-8.633 19.246-19.245 19.246s-19.246-8.633-19.246-19.246c0-10.612 8.633-19.245 19.246-19.245 10.611 0 19.245 8.633 19.245 19.245zm-93.301-110.891c8.96 0 16.25 7.29 16.25 16.25s-7.29 16.25-16.25 16.25-16.25-7.29-16.25-16.25 7.289-16.25 16.25-16.25zm-176.606 38.712h154.914c5.625 5.434 13.272 8.787 21.692 8.787s16.067-3.353 21.692-8.787h38.452c1.781 0 3.23 1.449 3.23 3.23v36.418c-4.318 1.421-8.256 3.679-11.628 6.582h-231.582v-43c0-1.781 1.449-3.23 3.23-3.23zm236.75 337.255h-236.75c-1.781 0-3.23-1.449-3.23-3.229v-84.016c0-4.142-3.358-7.5-7.5-7.5s-7.5 3.358-7.5 7.5v84.016c0 10.052 8.178 18.229 18.23 18.229h88.063v26.611c0 .98-.797 1.777-1.777 1.777h-204.703c-.98 0-1.777-.797-1.777-1.777v-234.853h101.964v68.971c0 4.142 3.358 7.5 7.5 7.5s7.5-3.358 7.5-7.5v-151.754h221.451c-1.164 3.44-1.805 7.12-1.805 10.949 0 15.154 9.897 28.032 23.564 32.531v229.316c0 1.781-1.449 3.229-3.23 3.229zm18.23-208.242v-22.87c10.1-1.277 18.841-6.963 24.225-15.071h80.824c.98 0 1.777.797 1.777 1.778v36.164h-106.826z"/><path d="m275.491 302.898c-6.115-5.22-14.236-8.109-22.866-8.135-.039 0-.077 0-.116 0-8.586 0-16.68 2.838-22.798 7.999-3.167 2.67-3.569 7.402-.898 10.568 2.67 3.167 7.402 3.57 10.568.898 3.368-2.84 8.15-4.465 13.131-4.465h.067c5.006.015 9.807 1.671 13.173 4.544 1.413 1.206 3.143 1.795 4.866 1.795 2.119 0 4.225-.893 5.708-2.631 2.689-3.15 2.315-7.884-.835-10.573z"/><path d="m294.649 267.023c-.065-.002-.129-.011-.195-.011h-.024c-.002 0-.005 0-.007 0h-.057-.032c-.003 0-.007 0-.01 0-4.122 0-7.432 3.331-7.455 7.458-.022 3.897 2.973 7.115 6.778 7.501.056.006.114.005.17.01.184.015.367.03.555.031h.042c.258 0 .513-.013.765-.039 3.787-.379 6.745-3.575 6.745-7.462-.001-4.065-3.239-7.368-7.275-7.488z"/><path d="m212.844 267.012h-.088c-.014 0-.028 0-.042 0-4.122 0-7.432 3.331-7.455 7.458-.023 4.142 3.36 7.519 7.502 7.542h.042c4.122 0 7.476-3.331 7.499-7.458.024-4.143-3.316-7.519-7.458-7.542z"/><path d="m161.84 124.113c.013.001.025.004.038.006.164.017.332.021.499.028.089.004.177.014.267.015h.04c4.124 0 7.478-3.333 7.499-7.461.019-3.641-2.561-6.687-5.998-7.386-.009-.002-.019-.003-.029-.005-.231-.046-.466-.083-.704-.108-.085-.009-.173-.008-.259-.014-.157-.011-.313-.025-.472-.026h-.095c-.013 0-.026 0-.04 0-.258 0-.513.013-.764.039-3.782.379-6.697 3.575-6.697 7.462-.001 3.86 2.958 7.037 6.715 7.45z"/><path d="m185.359 124.162c4.142 0 7.5-3.358 7.5-7.5s-3.358-7.5-7.5-7.5h-.093c-4.142 0-7.454 3.358-7.454 7.5s3.405 7.5 7.547 7.5z"/><path d="m208.049 124.162c4.142 0 7.5-3.358 7.5-7.5s-3.358-7.5-7.5-7.5h-.093c-4.142 0-7.454 3.358-7.454 7.5s3.405 7.5 7.547 7.5z"/><path d="m55.094 140.562c1.464 1.464 3.384 2.197 5.303 2.197s3.839-.732 5.303-2.197l3.995-3.995 3.995 3.995c1.464 1.465 3.384 2.197 5.303 2.197s3.839-.732 5.303-2.197c2.929-2.929 2.929-7.677 0-10.606l-3.995-3.995 3.995-3.995c2.929-2.929 2.929-7.678 0-10.606-2.929-2.929-7.678-2.929-10.606 0l-3.995 3.995-3.995-3.995c-2.928-2.929-7.677-2.929-10.606 0s-2.929 7.677 0 10.606l3.995 3.995-3.995 3.995c-2.929 2.928-2.929 7.677 0 10.606z"/><path d="m430.557 131.263c1.464 1.464 3.384 2.197 5.303 2.197s3.839-.732 5.303-2.197l3.995-3.995 3.995 3.995c1.464 1.464 3.384 2.197 5.303 2.197s3.839-.732 5.303-2.197c2.929-2.929 2.929-7.678 0-10.606l-3.995-3.995 3.995-3.995c2.929-2.929 2.929-7.678 0-10.606-2.929-2.929-7.678-2.929-10.606 0l-3.995 3.995-3.995-3.995c-2.929-2.929-7.678-2.929-10.606 0-2.929 2.929-2.929 7.678 0 10.606l3.995 3.995-3.995 3.995c-2.93 2.928-2.93 7.677 0 10.606z"/><path d="m239.631 54.147c1.464 1.464 3.384 2.197 5.303 2.197s3.839-.732 5.303-2.197l3.995-3.995 3.995 3.995c1.464 1.464 3.384 2.197 5.303 2.197s3.839-.732 5.303-2.197c2.929-2.929 2.929-7.678 0-10.606l-3.995-3.995 3.995-3.995c2.929-2.929 2.929-7.678 0-10.606-2.929-2.929-7.678-2.929-10.606 0l-3.995 3.995-3.995-3.995c-2.929-2.929-7.678-2.929-10.606 0-2.929 2.929-2.929 7.678 0 10.606l3.995 3.995-3.995 3.995c-2.929 2.928-2.929 7.677 0 10.606z"/></g></g></svg>